<svg xmlns="http://www.w3.org/2000/svg" viewBox="0 0 1378.57 340.21"><defs><style>.cls-1{fill:#fff;}.cls-1,.cls-2,.cls-3{stroke:#000;stroke-miterlimit:10;}.cls-1,.cls-2{stroke-width:5px;}.cls-2{fill:none;}.cls-3{stroke-width:2px;}.cls-4{font-size:274.46px;font-family:Amaranth, Amaranth;}.cls-5{letter-spacing:0em;}.cls-6{letter-spacing:-0.01em;}</style></defs><title>artifactorFullLogoAsset 3</title><g id="Layer_2" data-name="Layer 2"><g id="Layer_1-2" data-name="Layer 1"><circle class="cls-1" cx="111.8" cy="151.29" r="109.3" transform="translate(-74.69 126.62) rotate(-46)"/><path class="cls-2" d="M303,316.11,283.2,336.58,186.06,232.35l9.77-10.51Z"/><path class="cls-1" d="M207.29,176.77,96.62,203.51,16.74,178.77,105.1,84.45Z"/><line class="cls-2" x1="96.62" y1="203.51" x2="105.1" y2="84.45"/><path class="cls-2" d="M71.82,120c4.46,1.53,25.68,7.17,30.85,8.13l40.56-9.21"/><path class="cls-2" d="M54.34,139.39l46,12.39,63.29-14.5"/><path class="cls-2" d="M35.58,159.51l62.84,18.72,87.24-20.44"/><path class="cls-3" d="M166.71,235.87a93.07,93.07,0,0,1-58,18.13c-32-1.11-52.85-18.66-58.33-23.59a133.6,133.6,0,0,0,116.35,5.46Z"/><path class="cls-3" d="M284.53,327.08s-26.43-26.32-44.85-46C209,248.21,195.74,234.28,196.06,234s15.7,14.95,46.46,45.46C266.31,306.51,284.47,327.14,284.53,327.08Z"/><path class="cls-3" d="M206,114.71a95.79,95.79,0,0,0-97-64.45,140.32,140.32,0,0,1,97,64.45Z"/><path class="cls-3" d="M242.88,179.8"/><text class="cls-4" transform="translate(244.51 230.41)">Art<tspan class="cls-5" x="367.22" y="0">i</tspan><tspan class="cls-6" x="436.66" y="0">f</tspan><tspan x="531.63" y="0">actor</tspan></text></g></g></svg>