<?xml version="1.0" encoding="utf-8"?>
<!-- Generator: Adobe Illustrator 20.1.0, SVG Export Plug-In . SVG Version: 6.00 Build 0)  -->
<svg version="1.1" id="Layer_1" xmlns="http://www.w3.org/2000/svg" xmlns:xlink="http://www.w3.org/1999/xlink" x="0px" y="0px"
	 viewBox="0 0 1080 296.3" style="enable-background:new 0 0 1080 296.3;" xml:space="preserve">
<style type="text/css">
	.st0{fill:none;stroke:#000000;stroke-width:5;stroke-miterlimit:10;}
	.st1{stroke:#000000;stroke-width:2;stroke-miterlimit:10;}
	.st2{font-family:'Amaranth';}
	.st3{font-size:208.1981px;}
</style>
<g>
	
		<ellipse transform="matrix(0.6946 -0.7194 0.7194 0.6946 -66.7664 109.0459)" class="st0" cx="95.1" cy="133.2" rx="82.9" ry="82.9"/>
	<path class="st0" d="M240.1,258.2l-15,15.5c-24.6-26.4-49.1-52.7-73.7-79.1c2.5-2.7,4.9-5.3,7.4-8
		C185.9,210.5,213,234.4,240.1,258.2z"/>
	<g>
		<path class="st0" d="M167.5,152.5c-28,6.8-56,13.5-84,20.3C63.3,166.5,43.1,160.3,23,154c22.3-23.8,44.7-47.7,67-71.5
			C115.8,105.8,141.7,129.1,167.5,152.5z"/>
		<line class="st0" x1="83.5" y1="172.8" x2="90" y2="82.5"/>
		<path class="st0" d="M64.7,109.4c3.4,1.2,19.5,5.4,23.4,6.2c10.3-2.3,20.5-4.7,30.8-7"/>
		<path class="st0" d="M51.5,124.1c11.6,3.1,23.2,6.3,34.9,9.4c16-3.7,32-7.3,48-11"/>
		<path class="st0" d="M37.2,139.4c15.9,4.7,31.8,9.5,47.7,14.2c22.1-5.2,44.1-10.3,66.2-15.5"/>
	</g>
	<path class="st1" d="M136.7,197.3c-4.6,3.4-20.8,14.6-44,13.8c-24.3-0.8-40.1-14.2-44.2-17.9c7.9,4.3,23.5,11.4,44.4,12.2
		C113,206.2,128.5,200.8,136.7,197.3z"/>
	<path class="st1" d="M226.1,266.5c0,0-20-20-34-34.9c-23.3-24.9-33.3-35.5-33.1-35.7c0.2-0.2,11.9,11.3,35.2,34.5
		C212.3,250.9,226,266.6,226.1,266.5z"/>
	<path class="st1" d="M166.5,105.4c-1.8-5.4-8.7-23.4-27.9-36.5c-20.1-13.7-40.3-12.8-45.7-12.4c8.8,1.4,25.3,5.1,42.7,16.8
		C152.3,84.6,161.8,97.9,166.5,105.4z"/>
	<path class="st1" d="M194.5,154.8"/>
	<text transform="matrix(1 0 0 1 195.7295 193.1816)" class="st2 st3">Artifactor</text>
</g>
</svg>
